<svg width="33" height="33" viewBox="0 0 33 33" fill="none" xmlns="http://www.w3.org/2000/svg">
<path d="M16.8097 32.1223C12.4574 32.1223 11.9444 32.0997 10.2459 32.0267C8.92141 31.984 7.61407 31.7196 6.38015 31.2449C4.24525 30.429 2.55711 28.7705 1.7271 26.6736C1.26234 25.4574 1.01166 24.1725 0.985795 22.8737C0.886719 21.2092 0.886719 20.6636 0.886719 16.4225C0.886719 12.1361 0.909719 11.6357 0.985795 9.97641C1.01222 8.67942 1.26289 7.39627 1.7271 6.18176C2.55621 4.08207 4.24709 2.42216 6.38546 1.60872C7.62152 1.15038 8.92844 0.903555 10.2494 0.87898C11.939 0.785156 12.4946 0.785156 16.8097 0.785156C21.1974 0.785156 21.7016 0.807743 23.3735 0.87898C24.6979 0.903768 26.0083 1.15056 27.2481 1.60872C29.3859 2.42308 31.0764 4.08267 31.9065 6.18176C32.3791 7.41397 32.6311 8.71718 32.6513 10.0337C32.7504 11.6983 32.7504 12.2421 32.7504 16.4815C32.7504 20.721 32.7256 21.277 32.6513 22.9224C32.625 24.2223 32.3737 25.5085 31.9082 26.7257C31.0761 28.8241 29.3855 30.4831 27.2481 31.2987C26.0101 31.7543 24.7024 32.0004 23.3806 32.0267C21.691 32.1223 21.1372 32.1223 16.8097 32.1223ZM16.7496 3.53558C12.422 3.53558 11.9727 3.55643 10.2831 3.63114C9.27457 3.64427 8.27584 3.82703 7.33022 4.1715C5.93387 4.69623 4.82895 5.77692 4.28893 7.14606C3.93546 8.08482 3.74933 9.07636 3.7387 10.0772C3.64494 11.7608 3.64494 12.2021 3.64494 16.4225C3.64494 20.5924 3.66086 21.098 3.7387 22.7712C3.75454 23.7619 3.94056 24.7429 4.28893 25.6728C4.82974 27.041 5.93447 28.1209 7.33022 28.6456C8.27519 28.9924 9.27433 29.1752 10.2831 29.186C11.9957 29.2833 12.4468 29.2833 16.7496 29.2833C21.0895 29.2833 21.5388 29.2624 23.2143 29.186C24.2235 29.1739 25.223 28.9911 26.1689 28.6456C27.5568 28.1164 28.6545 27.0389 29.1943 25.6763C29.547 24.7367 29.7332 23.7447 29.7445 22.7434H29.764C29.84 21.0824 29.84 20.6393 29.84 16.3947C29.84 12.15 29.8206 11.7035 29.7445 10.0442C29.7286 9.0546 29.5426 8.07476 29.1943 7.14606C28.6558 5.7814 27.5579 4.70194 26.1689 4.1715C25.2232 3.82529 24.2235 3.64248 23.2143 3.63114C21.5035 3.53558 21.0558 3.53558 16.7496 3.53558ZM16.8097 24.4479C13.5013 24.45 10.5173 22.4945 9.24959 19.4934C7.98184 16.4923 8.67998 13.0367 11.0184 10.7382C13.3568 8.43977 16.8749 7.75117 19.932 8.99358C22.989 10.236 24.9828 13.1647 24.9835 16.4138C24.9787 20.8462 21.3231 24.4392 16.8097 24.4479ZM16.8097 11.1979C13.8784 11.1979 11.502 13.5315 11.502 16.4103C11.502 19.289 13.8784 21.6227 16.8097 21.6227C19.7411 21.6227 22.1174 19.289 22.1174 16.4103C22.1106 13.5343 19.7382 11.2045 16.8097 11.1979ZM25.302 9.95905C24.25 9.9552 23.3999 9.11565 23.4018 8.08258C23.4038 7.04951 24.2571 6.21305 25.3091 6.21305C26.361 6.21305 27.2143 7.04949 27.2163 8.08256C27.2167 8.58098 27.0151 9.05906 26.6559 9.41117C26.2967 9.76328 25.8095 9.96042 25.302 9.95905Z" fill="#E7E9FF"/>
</svg>
