<svg width="15" height="15" viewBox="0 0 15 15" fill="none" xmlns="http://www.w3.org/2000/svg">
<path fill-rule="evenodd" clip-rule="evenodd" d="M3.61716 1.66866C3.61716 2.59625 2.91894 3.33848 1.79782 3.33848H1.77728C0.697838 3.33848 0 2.59625 0 1.66866C0 0.721452 0.719092 0 1.81901 0C2.91894 0 3.59629 0.721452 3.61716 1.66866ZM3.40626 4.65677V14.3173H0.190995V4.65677H3.40626ZM15.0002 14.3175L15.0003 8.77839C15.0003 5.81109 13.4141 4.43006 11.2983 4.43006C9.59125 4.43006 8.82695 5.36771 8.40021 6.0255V4.65716H5.18456C5.22694 5.56366 5.18456 14.3177 5.18456 14.3177H8.40021V8.92246C8.40021 8.63374 8.42108 8.34572 8.50609 8.13901C8.73847 7.5622 9.26756 6.96501 10.1559 6.96501C11.3198 6.96501 11.7851 7.85086 11.7851 9.14905V14.3175H15.0002Z" fill="white" fill-opacity="0.5"/>
</svg>
